<svg xmlns="http://www.w3.org/2000/svg" version="1.1" viewBox="-5.0 -10.0 110.0 135.0" fill="#fff">
 <path d="m81 89.457h-72.668c-1.707 0-3.125-1.418-3.125-3.125s1.418-3.125 3.125-3.125h72.668c1.707 0 3.125 1.418 3.125 3.125s-1.418 3.125-3.125 3.125z"/>
 <path d="m48.543 89.457h-9.168c-14.832 0-27.125-11.125-28.625-25.875l-1.25-15.457c-0.25-2.625 0.625-5.293 2.418-7.293s4.375-3.125 7.082-3.125h49.957c2.668 0 5.25 1.168 7.082 3.168 1.793 2 2.668 4.668 2.418 7.293l-1.293 15.375c-0.41797 4.125-1.668 8-3.707 11.543-5.125 8.875-14.668 14.418-24.918 14.418zm-29.543-45.539c-0.95703 0-1.793 0.375-2.418 1.082s-0.91797 1.582-0.83203 2.543l1.25 15.457c1.168 11.5 10.793 20.207 22.418 20.207h9.168c8.043 0 15.5-4.332 19.5-11.25 1.582-2.793 2.543-5.832 2.875-9l1.293-15.332v-0.042969c0.082032-0.91797-0.20703-1.832-0.83203-2.5s-1.5-1.082-2.418-1.082h-50.004z"/>
 <path d="m78.832 76.625h-8.082c-1.125 0-2.125-0.58203-2.707-1.543-0.58203-0.95703-0.58203-2.168 0-3.125 1.582-2.793 2.582-5.832 2.918-9.043l1.293-15.332c0.125-1.625 1.5-2.875 3.125-2.875h3.5c8.793 0 15.957 7.168 15.957 15.957 0 8.793-7.168 15.957-15.957 15.957zm-3.207-6.25h3.207c5.332 0 9.707-4.332 9.707-9.707s-4.332-9.707-9.707-9.707h-0.625l-1.043 12.5c-0.25 2.375-0.75 4.668-1.543 6.875z"/>
 <path d="m27.25 33.875c-0.79297 0-1.582-0.29297-2.207-0.91797-1.207-1.207-1.207-3.207 0-4.418 0.54297-0.54297 0.875-1.293 0.875-2.082 0-0.79297-0.29297-1.5-0.875-2.082-3.582-3.582-3.582-9.375 0-12.957 1.207-1.207 3.207-1.207 4.418 0 1.207 1.207 1.207 3.207 0 4.418-0.54297 0.54297-0.875 1.293-0.875 2.082 0 0.79297 0.29297 1.5 0.875 2.082 3.582 3.582 3.582 9.375 0 12.957-0.625 0.625-1.418 0.91797-2.207 0.91797z"/>
 <path d="m43.625 33.875c-0.79297 0-1.582-0.29297-2.207-0.91797-1.207-1.207-1.207-3.207 0-4.418 0.54297-0.54297 0.875-1.293 0.875-2.082 0-0.79297-0.29297-1.5-0.875-2.082-3.582-3.582-3.582-9.375 0-12.957 1.207-1.207 3.207-1.207 4.418 0 1.207 1.207 1.207 3.207 0 4.418-0.54297 0.54297-0.875 1.293-0.875 2.082 0 0.79297 0.29297 1.5 0.875 2.082 3.582 3.582 3.582 9.375 0 12.957-0.625 0.625-1.418 0.91797-2.207 0.91797z"/>
 <path d="m60.707 33.875c-0.79297 0-1.582-0.29297-2.207-0.91797-1.207-1.207-1.207-3.207 0-4.418 0.54297-0.54297 0.875-1.293 0.875-2.082 0-0.79297-0.29297-1.5-0.875-2.082-3.582-3.582-3.582-9.375 0-12.957 1.207-1.207 3.207-1.207 4.418 0 1.207 1.207 1.207 3.207 0 4.418-0.54297 0.54297-0.875 1.293-0.875 2.082 0 0.79297 0.29297 1.5 0.875 2.082 3.582 3.582 3.582 9.375 0 12.957-0.625 0.625-1.418 0.91797-2.207 0.91797z"/>
<text x="0.0" y="117.5" font-size="5.0" font-weight="bold" font-family="Arbeit Regular, Helvetica, Arial-Unicode, Arial, Sans-serif" fill="#000000">Created by Rolas Creative</text><text x="0.0" y="122.5" font-size="5.0" font-weight="bold" font-family="Arbeit Regular, Helvetica, Arial-Unicode, Arial, Sans-serif" fill="#000000">from Noun Project</text></svg>