<svg xmlns="http://www.w3.org/2000/svg" fill="#fff" xmlns:xlink="http://www.w3.org/1999/xlink" xml:space="preserve" style="shape-rendering:geometricPrecision;text-rendering:geometricPrecision;image-rendering:optimizeQuality;" viewBox="0 0 1.70666 2.133325" x="0px" y="0px" fill-rule="evenodd" clip-rule="evenodd"><defs><style type="text/css">
   
    .fil0 {fill:white}
   
  </style></defs><g><g><g><g><path class="fil0" d="M0.853331 1.64909c-0.142945,0 -0.477213,-0.00883071 -0.493622,-0.0906142 -0.000559055,-0.00274803 -0.000515748,-0.00558268 9.84252e-005,-0.00834252l0.0909882 -0.403291c0.00205512,-0.00911024 0.0101496,-0.0155906 0.0195039,-0.0155906l0.766063 -3.93701e-006c0.00934646,0 0.0174567,0.00648425 0.0194961,0.0155906l0.0909882 0.403287c0.000625984,0.00273622 0.000665354,0.00558661 0.000110236,0.00834646 -0.0164094,0.0817874 -0.350661,0.0906181 -0.493626,0.0906181zm-0.453106 -0.0963504c0.0187992,0.0241457 0.181157,0.0563583 0.453106,0.0563583 0.271425,0 0.433669,-0.0320906 0.453083,-0.0565l-0.0860354 -0.381354 -0.734098 7.87402e-006 -0.0860551 0.381488zm0.830807 -0.513965l-0.755398 0c-0.0100394,0 -0.0185276,-0.00744488 -0.0198268,-0.0173976l-0.108028 -0.824008c-0.00108268,-0.00823228 0.00303543,-0.0162717 0.0103583,-0.0202126 0.145614,-0.0782323 0.316854,-0.119579 0.495193,-0.119579 0.178339,0 0.349583,0.0413465 0.495197,0.119579 0.00731496,0.00392913 0.0114409,0.0119803 0.0103583,0.0202126l-0.108028 0.824008c-0.00130709,0.00995276 -0.0097874,0.0173976 -0.0198268,0.0173976zm-0.73785 -0.0399921l0.720303 0 0.103945 -0.792807c-0.137161,-0.0709488 -0.297295,-0.108398 -0.464091,-0.108398 -0.166815,0 -0.326937,0.0374488 -0.464091,0.108398l0.103933 0.792807z"/></g><g><path class="fil0" d="M0.605429 1.63873c-0.00958268,0 -0.0180551,-0.00691732 -0.0196929,-0.0166772 -0.0260079,-0.154406 -0.0200787,-0.309874 0.0180787,-0.475299 0.00248819,-0.0107638 0.0132717,-0.0175 0.0239803,-0.015 0.0107638,0.00248819 0.0174646,0.0132205 0.0149961,0.0239764 -0.0369606,0.16022 -0.0427205,0.310583 -0.017622,0.459677 0.00183071,0.0108858 -0.0055,0.0212008 -0.0163976,0.0230354 -0.00111024,0.000204724 -0.00223228,0.000287402 -0.00334252,0.000287402zm0.0544724 -0.599957c-0.00201575,0 -0.00405906,-0.000307087 -0.00608268,-0.000944882 -0.0105276,-0.00335039 -0.0163307,-0.0145945 -0.0129843,-0.0251181 0.0474055,-0.148878 0.111909,-0.29128 0.180213,-0.442043 0.0699803,-0.154488 0.142331,-0.314217 0.196004,-0.483909 0.00333071,-0.0105276 0.0145512,-0.0163307 0.0251063,-0.0130354 0.0105236,0.00333465 0.0163543,0.014563 0.0130236,0.0250906 -0.0543898,0.171953 -0.12724,0.332795 -0.197709,0.488354 -0.0677913,0.149673 -0.131843,0.291051 -0.178539,0.437677 -0.00268898,0.00851181 -0.010563,0.0139291 -0.0190315,0.0139291z"/></g><g><path class="fil0" d="M0.866524 0.538606c-0.00603937,0 -0.0119961,-0.00272441 -0.0159252,-0.00788976 -0.0854213,-0.112315 -0.149165,-0.305661 -0.177799,-0.437098 -0.00234646,-0.0107913 0.0045,-0.0214409 0.0152874,-0.0237992 0.0107756,-0.0023622 0.021437,0.00448425 0.0237992,0.0152835 0.0299646,0.137531 0.094311,0.321177 0.170551,0.421429 0.0066811,0.0087874 0.0049685,0.0213268 -0.00380315,0.0280157 -0.00362992,0.00272441 -0.00788976,0.00405906 -0.0121102,0.00405906z"/></g><g><path class="fil0" d="M0.18298 1.19292l0 0c-0.00783071,0 -0.013374,-0.00355118 -0.0203819,-0.00806693 -0.00296063,-0.00189764 -0.00675197,-0.00433465 -0.0117205,-0.00720472l-0.140059 -0.0808543c-0.00594094,-0.00343307 -0.00972047,-0.00966535 -0.00998425,-0.0165236 -0.017189,-0.438335 0.336197,-0.879531 0.351248,-0.898083 0.00503543,-0.00620866 0.0132717,-0.00881496 0.0209646,-0.00664961 0.00769291,0.0021811 0.0133465,0.00872441 0.0143858,0.0166496l0.0712677 0.543736c0.000708661,0.00543307 -0.000830709,0.0109173 -0.00429134,0.0151772 -0.107776,0.133157 -0.211925,0.346083 -0.24128,0.408165 -0.00226378,0.00479134 -0.0038622,0.0086378 -0.0051378,0.0116732 -0.00340551,0.00822047 -0.00915748,0.0219803 -0.0250118,0.0219803zm-0.142516 -0.125201l0.130417 0.0752992c0.00161417,0.000917323 0.00309843,0.00180315 0.0045,0.00264961 0.000511811,-0.00112205 0.00105512,-0.00229528 0.00162598,-0.00351181 0.0293504,-0.0620827 0.13235,-0.272614 0.240961,-0.409512l-0.0638307 -0.486878c-0.0842126,0.115791 -0.322059,0.474508 -0.313673,0.821953z"/></g><g><path class="fil0" d="M1.52344 1.19294c-0.0157323,0 -0.021189,-0.0133031 -0.0244488,-0.0212441 -0.00120866,-0.00292913 -0.00275197,-0.00670472 -0.00498425,-0.0114409 -0.0293937,-0.0622165 -0.133669,-0.275618 -0.241756,-0.40915 -0.00344094,-0.00425984 -0.005,-0.00974409 -0.00429134,-0.0151772l0.0712874 -0.543736c0.00103937,-0.00793307 0.00668898,-0.0144685 0.0143819,-0.0166496 0.00770472,-0.00214961 0.0159291,0.000448819 0.0209685,0.00664961 0.0150512,0.018563 0.368437,0.459748 0.351232,0.898087 -0.000259843,0.00685827 -0.00402362,0.0130945 -0.00998031,0.0165236l-0.143319 0.0827441c-0.004,0.0023189 -0.0071378,0.00430315 -0.00961024,0.00587402 -0.00638583,0.00403543 -0.0118858,0.00751969 -0.0194803,0.00751969zm-0.234724 -0.460276c0.108913,0.137268 0.212039,0.348276 0.241433,0.410492 0.000401575,0.000862205 0.000791339,0.00166929 0.00115354,0.00247244 0.000389764,-0.00023622 0.000818898,-0.000472441 0.00122441,-0.000724409l0.133697 -0.077185c0.00838583,-0.347445 -0.229445,-0.706173 -0.313673,-0.821937l-0.0638346 0.486882z"/></g><g><path class="fil0" d="M1.271 1.17125l-0.835327 0c-0.031063,0 -0.0563307,-0.0252677 -0.0563307,-0.0563307l0 -0.0598071c0,-0.0310591 0.0252677,-0.0563465 0.0563307,-0.0563465l0.835327 0c0.0310433,0 0.0563307,0.0252717 0.0563307,0.0563465l0 0.0598071c0,0.0310472 -0.0252874,0.0563307 -0.0563307,0.0563307zm-0.835327 -0.132476c-0.00901181,0 -0.0163425,0.00731496 -0.0163425,0.0163386l0 0.0598071c0,0.009 0.00733071,0.0163307 0.0163425,0.0163307l0.835327 -3.93701e-006c0.009,0 0.0163307,-0.0073189 0.0163307,-0.0163346l0 -0.0598031c0,-0.00901181 -0.00731496,-0.0163425 -0.0163307,-0.0163425l-0.835327 7.87402e-006z"/></g><g><path class="fil0" d="M0.984087 1.37739l-0.0897362 0c-0.0110354,0 -0.0199961,-0.00897244 -0.0199961,-0.0199961l0 -0.206154c0,-0.0110354 0.0089685,-0.0199921 0.0199961,-0.0199921l0.0897362 0c0.0110394,0 0.0199961,0.0089685 0.0199961,0.0199921l0 0.206154c0,0.0110354 -0.00895669,0.0199961 -0.0199961,0.0199961zm-0.0697323 -0.0400079l0.0497402 0 0 -0.166146 -0.0497402 0 0 0.166146z"/></g><g><path class="fil0" d="M1.15715 1.44811l-0.0897362 0c-0.0110354,0 -0.0199961,-0.0089685 -0.0199961,-0.0199921l0 -0.27687c0,-0.0110354 0.0089685,-0.0199921 0.0199961,-0.0199921l0.0897362 0c0.0110394,0 0.0199961,0.0089685 0.0199961,0.0199921l0 0.27687c0,0.0110236 -0.00895276,0.0199921 -0.0199961,0.0199921zm-0.0697441 -0.0400039l0.0497402 0 0 -0.236878 -0.0497402 0 0 0.236878z"/></g><g><path class="fil0" d="M1.12726 0.642661l-0.141016 0c-0.0110354,0 -0.0199961,-0.00896063 -0.0199961,-0.0199961 0,-0.0110354 0.0089685,-0.0199961 0.0199961,-0.0199961l0.141 0c0.0110354,0 0.0199921,0.00896063 0.0199921,0.0199961 0,0.0110354 -0.00895276,0.0199961 -0.0199764,0.0199961z"/></g><g><path class="fil0" d="M0.691406 0.642661l-0.141016 0c-0.0110394,0 -0.0199961,-0.00896063 -0.0199961,-0.0199961 0,-0.0110354 0.00895669,-0.0199961 0.0199961,-0.0199961l0.141016 0c0.0110354,0 0.0199921,0.00896063 0.0199921,0.0199961 0,0.0110354 -0.00895276,0.0199961 -0.0199921,0.0199961z"/></g></g></g></g><text x="0" y="16.70666" fill="#000000" font-size="5px" font-weight="bold" font-family="'Helvetica Neue', Helvetica, Arial-Unicode, Arial, Sans-serif">Created by Amir Ali</text><text x="0" y="21.70666" fill="#000000" font-size="5px" font-weight="bold" font-family="'Helvetica Neue', Helvetica, Arial-Unicode, Arial, Sans-serif">from the Noun Project</text></svg>