<svg xmlns="http://www.w3.org/2000/svg" fill="#fff" version="1.1" viewBox="-5.0 -10.0 110.0 135.0">
 <g>
  <path d="m50.188 18.844c0 1.7461-2.6211 1.7461-2.6211 0s2.6211-1.7461 2.6211 0"/>
  <path d="m56.652 25.309c0 1.75-2.6172 1.75-2.6172 0 0-1.7461 2.6172-1.7461 2.6172 0"/>
  <path d="m62.738 32.703c0.37109-0.375 0.48438-0.9375 0.28125-1.4258-0.20312-0.49219-0.67969-0.80859-1.2109-0.80859-0.52734 0-1.0078 0.31641-1.207 0.80859-0.20312 0.48828-0.09375 1.0508 0.28125 1.4258 0.51172 0.51172 1.3398 0.51172 1.8555 0z"/>
  <path d="m69.199 39.168c0.375-0.375 0.48828-0.9375 0.28516-1.4297-0.20312-0.48828-0.67969-0.80859-1.2109-0.80859s-1.0078 0.32031-1.2109 0.80859c-0.20312 0.49219-0.089844 1.0547 0.28516 1.4297 0.24219 0.24609 0.57812 0.38672 0.92578 0.38672 0.34766 0 0.68359-0.14063 0.92578-0.38672z"/>
  <path d="m76.051 44.707c0 1.7461-2.6211 1.7461-2.6211 0 0-1.7461 2.6211-1.7461 2.6211 0"/>
  <path d="m39.211 43.297c0.375-0.375 0.48437-0.9375 0.28125-1.4258-0.20313-0.49219-0.67969-0.80859-1.207-0.80859-0.53125 0-1.0078 0.31641-1.2109 0.80859-0.20312 0.48828-0.09375 1.0508 0.28125 1.4258 0.24609 0.24609 0.57812 0.38672 0.92969 0.38672 0.34766 0 0.67969-0.14062 0.92578-0.38672z"/>
  <path d="m45.668 49.762c0.375-0.375 0.48438-0.94141 0.28125-1.4297s-0.67969-0.80859-1.2109-0.80859c-0.52734 0-1.0039 0.32031-1.207 0.80859s-0.09375 1.0547 0.28125 1.4297c0.24609 0.24609 0.57812 0.38281 0.92578 0.38281 0.34766 0 0.68359-0.13672 0.92969-0.38281z"/>
  <path d="m52.527 55.301c0 1.7461-2.6211 1.7461-2.6211 0 0-1.7461 2.6211-1.7461 2.6211 0"/>
  <path d="m41.535 27.5c0 1.7461-2.6211 1.7461-2.6211 0s2.6211-1.7461 2.6211 0"/>
  <path d="m47.617 34.891c0.375-0.375 0.48437-0.9375 0.28125-1.4297-0.19922-0.48828-0.67969-0.80859-1.207-0.80859-0.53125 0-1.0078 0.32031-1.2109 0.80859-0.20312 0.49219-0.089844 1.0547 0.28125 1.4297 0.51562 0.50781 1.3438 0.50781 1.8555 0z"/>
  <path d="m54.078 41.355c0.37891-0.375 0.48828-0.9375 0.28906-1.4258-0.20313-0.49219-0.68359-0.8125-1.2109-0.8125-0.53125 0-1.0078 0.32031-1.2109 0.8125-0.20312 0.48828-0.089843 1.0508 0.28516 1.4258 0.24609 0.24609 0.57812 0.38672 0.92578 0.38672s0.67969-0.14063 0.92188-0.38672z"/>
  <path d="m60.93 46.898c0 1.7461-2.6211 1.7461-2.6211 0 0-1.75 2.6211-1.75 2.6211 0"/>
  <path d="m67.398 53.359c0 1.7461-2.6211 1.7461-2.6211 0s2.6211-1.7461 2.6211 0"/>
  <path d="m65 17.648c0.375-0.375 0.48828-0.94141 0.28516-1.4297s-0.67969-0.80859-1.2109-0.80859-1.0078 0.32031-1.2109 0.80859-0.089843 1.0547 0.28516 1.4297c0.24609 0.24219 0.57812 0.38281 0.92578 0.38281 0.34766 0 0.67969-0.14062 0.92578-0.38281z"/>
  <path d="m71.773 23.125c0 1.7461-2.6211 1.7461-2.6211 0 0-1.75 2.6211-1.75 2.6211 0"/>
  <path d="m78.172 29.523c0 1.7461-2.6172 1.7461-2.6172 0 0-1.7461 2.6172-1.7461 2.6172 0"/>
  <path d="m95.5 78.516c-1.4648-5.3203-5.6211-9.4766-10.941-10.945-0.21094-0.12891-0.44922-0.20703-0.69922-0.22656h-0.023437c-4.4883-1.0273-9.1992-0.042969-12.902 2.6875-3.7031 2.7344-6.0312 6.9453-6.375 11.535s1.3281 9.1016 4.582 12.359c3.2578 3.2539 7.7695 4.9258 12.359 4.582s8.8008-2.6719 11.535-6.375c2.7305-3.7031 3.7148-8.4141 2.6875-12.902v-0.027344c-0.019531-0.24219-0.097656-0.47656-0.22266-0.6875zm-3.5898-0.36328c-1.8828 0.74219-3.3125 2.3203-3.8672 4.2656l-0.18359 0.57422v-0.003907c-0.26562 0.92969-0.60938 1.8359-1.0234 2.7109-1.4453 2.6992-4.4805 4.1367-7.4844 3.5508-2.8164-0.51172-5.0195-2.7109-5.5352-5.5273-0.58203-3 0.85156-6.0312 3.5391-7.4844 0.88672-0.41797 1.8008-0.76562 2.7422-1.0352l0.55859-0.17969c1.9453-0.55469 3.5195-1.9844 4.2578-3.8672 3.2031 1.2539 5.7422 3.793 6.9961 6.9961zm-11.484 16.848c-6.8242 0-12.359-5.5352-12.359-12.359 0-6.8281 5.5352-12.359 12.359-12.359 0.40234 0.019531 0.80078 0.0625 1.1992 0.12109-0.46094 0.72266-1.1758 1.2383-2 1.4492l-0.53906 0.17188-0.003907 0.003906c-1.1172 0.32422-2.2109 0.74219-3.2578 1.2539-3.9883 2.1055-6.1367 6.5664-5.2891 11 0.35547 2.0586 1.3438 3.9531 2.8242 5.4297 1.4727 1.4805 3.375 2.4688 5.4336 2.8242 0.61719 0.10156 1.2383 0.15234 1.8633 0.15625 3.8281 0.046875 7.3594-2.0625 9.1289-5.457 0.50391-1.0391 0.91797-2.1211 1.2383-3.2305l0.17969-0.55859c0.21484-0.82422 0.73047-1.5391 1.4492-2 0.0625 0.39844 0.10547 0.80078 0.125 1.2031-0.011719 6.8164-5.5352 12.34-12.352 12.352z"/>
  <path d="m6.7305 87.508c2.9336 2.9258 7.6836 2.9258 10.617 0l13.352-13.332-0.003907-0.003906c0.48828-0.48047 0.75781-1.1367 0.75781-1.8203-0.015625-0.17578-0.050781-0.35156-0.10156-0.51953 4.1602-2.4219 8.6445-4.2539 13.316-5.4336 2.0547 0.32422 4.1289 0.48828 6.207 0.48828 10.633-0.070313 20.973-3.4883 29.551-9.7656 6.3711-4.1797 10.562-10.969 11.449-18.535 0.58594-8.0781-3.418-16.48-11.898-24.965l-0.039062-0.039063c-8.4922-8.457-16.895-12.441-24.938-11.859-7.5664 0.88672-14.352 5.0781-18.535 11.445-7.5859 10.285-10.91 23.102-9.2852 35.777-1.1758 4.6602-3 9.1328-5.418 13.289-0.16406-0.054687-0.33594-0.085937-0.51172-0.10156-0.68359 0-1.3398 0.27344-1.8203 0.75781l-13.352 13.332c-2.9258 2.9375-2.9258 7.6875 0 10.621zm32.406-72.332v-0.003906c3.6133-5.5781 9.5078-9.2812 16.102-10.113 0.43359-0.03125 0.86719-0.046875 1.3047-0.046875 6.6914 0 13.773 3.6914 21.102 11.02 7.7422 7.7539 11.406 15.262 10.895 22.332l-0.003906 0.003907c-0.83203 6.5938-4.5312 12.484-10.109 16.098-9.6797 7.1016-21.727 10.191-33.629 8.625h-0.046875c-3.5664-0.44141-6.918-1.9492-9.6172-4.3242l-0.4375-0.43359c-2.2891-2.625-3.7422-5.875-4.1758-9.332-0.007812-0.15234-0.035156-0.30469-0.085937-0.44531-1.4531-11.836 1.6602-23.777 8.7031-33.395zm-6.8047 45.492 0.5625 0.56641h0.003907c1.6328 1.5469 3.5586 2.75 5.6641 3.5391-3.2383 1.0938-6.3359 2.5625-9.2305 4.3789l-4.9023-4.9023c1.8164-2.8945 3.2812-5.9961 4.3711-9.2344 0.78516 2.1016 1.9883 4.0234 3.5312 5.6523zm-11.086 5.1133 6.5586 6.5508-4.4375 4.4414-10.668-2.4531zm-12.812 12.812 1.4922-1.4922 10.668 2.457-5.5938 5.5898c-1.6328 1.6289-4.2734 1.6289-5.9023 0l-0.66797-0.66797v0.003906c-1.6133-1.6328-1.6133-4.2617 0.003906-5.8906z"/>
 </g>
<text x="0.0" y="117.5" font-size="5.0" font-weight="bold" font-family="Arbeit Regular, Helvetica, Arial-Unicode, Arial, Sans-serif" fill="#000000">Created by Atif Arshad</text><text x="0.0" y="122.5" font-size="5.0" font-weight="bold" font-family="Arbeit Regular, Helvetica, Arial-Unicode, Arial, Sans-serif" fill="#000000">from Noun Project</text></svg>